<?xml version="1.0" standalone="no"?>
<!DOCTYPE svg PUBLIC "-//W3C//DTD SVG 20010904//EN"
 "http://www.w3.org/TR/2001/REC-SVG-20010904/DTD/svg10.dtd">
<svg version="1.0" xmlns="http://www.w3.org/2000/svg"
 width="875.000000pt" height="875.000000pt" viewBox="0 0 875.000000 875.000000"
 preserveAspectRatio="xMidYMid meet">
<metadata>
Created by potrace 1.14, written by Peter Selinger 2001-2017
</metadata>
<g transform="translate(0.000000,875.000000) scale(0.100000,-0.100000)"
fill="#000000" stroke="none">
<path d="M6145 8423 c2 -10 12 -58 23 -108 11 -49 26 -133 33 -185 18 -126 18
-535 0 -660 -26 -190 -101 -506 -115 -493 -5 4 -6 2 -2 -5 10 -16 -41 -169
-116 -350 -216 -525 -531 -958 -914 -1260 -262 -206 -484 -325 -1029 -552
-558 -232 -699 -298 -970 -458 -367 -217 -662 -487 -889 -815 -41 -59 -170
-283 -171 -297 0 -3 -19 -52 -42 -110 -94 -238 -126 -397 -127 -630 -1 -176
12 -262 59 -398 28 -84 75 -186 81 -179 3 3 0 42 -7 88 -25 173 3 419 70 610
52 150 154 355 171 344 4 -2 7 2 7 9 0 20 99 159 178 250 286 325 681 579
1153 740 257 88 452 140 867 232 464 102 560 126 739 184 246 80 442 167 610
272 45 28 86 51 93 51 7 0 10 4 7 9 -3 4 -1 8 4 8 24 0 209 156 332 279 149
150 232 252 332 411 273 435 383 890 338 1400 -34 385 -170 786 -386 1141 -30
49 -54 93 -54 98 0 5 -4 11 -9 13 -4 2 -31 40 -59 85 -58 94 -188 279 -202
288 -5 3 -7 -2 -5 -12z"/>
<path d="M3836 8144 c-2 -6 -25 -16 -51 -23 -25 -6 -44 -15 -41 -20 3 -4 -7
-14 -21 -22 -58 -31 -105 -94 -118 -157 -2 -12 -7 -28 -12 -34 -10 -17 -20
-177 -11 -171 5 2 7 -4 6 -14 -3 -40 3 -61 35 -109 52 -81 100 -135 114 -130
7 3 12 0 10 -6 -1 -7 4 -13 11 -14 6 -1 17 -2 23 -3 5 0 7 -5 4 -11 -3 -5 0
-7 9 -4 8 3 25 -1 38 -9 15 -10 54 -14 118 -15 105 -1 148 13 226 75 22 18 44
30 47 26 4 -3 7 0 7 8 0 9 8 24 18 35 69 78 91 142 85 241 -6 95 -44 187 -101
249 -53 57 -82 77 -144 99 -53 19 -246 26 -252 9z"/>
<path d="M4674 7998 c32 -105 56 -223 56 -273 0 -118 -47 -309 -103 -420 -69
-138 -289 -441 -310 -428 -6 3 -7 1 -3 -5 4 -7 -17 -42 -48 -81 -31 -39 -88
-119 -127 -178 -39 -59 -79 -119 -88 -133 -9 -14 -42 -77 -73 -141 -88 -180
-154 -410 -213 -743 -24 -136 -135 -381 -201 -444 -19 -18 -32 -37 -28 -43 4
-6 10 -7 17 -1 7 6 68 35 137 65 291 129 607 286 691 343 27 19 51 34 54 34 5
0 67 46 144 108 80 64 235 224 293 303 150 202 240 418 283 678 25 148 16 404
-18 551 -49 208 -108 349 -219 527 -36 56 -85 126 -110 155 -25 29 -63 74 -84
100 -43 51 -60 60 -50 26z"/>
<path d="M2460 7672 c-134 -10 -199 -170 -118 -288 72 -106 258 -76 303 48 45
126 -50 250 -185 240z"/>
<path d="M5672 7519 c-23 -4 -56 -17 -71 -28 -100 -72 -90 -233 19 -289 117
-60 246 30 238 166 -2 28 -6 48 -9 46 -3 -2 -13 11 -21 29 -10 21 -33 42 -64
58 -41 22 -56 25 -92 18z"/>
<path d="M3110 7365 c-7 -20 -8 -35 -2 -45 12 -20 4 -112 -14 -165 -32 -95
-41 -116 -50 -115 -5 0 -12 -14 -15 -32 -10 -52 -38 -108 -54 -108 -8 0 -12
-6 -9 -14 3 -7 -9 -29 -25 -47 -17 -18 -31 -39 -31 -46 0 -7 -13 -19 -30 -28
-16 -9 -30 -18 -30 -21 0 -3 6 -2 13 2 6 4 -30 -35 -82 -87 -52 -52 -98 -95
-103 -95 -4 -1 -12 -2 -18 -3 -5 0 -9 -4 -9 -8 3 -20 -2 -33 -13 -33 -7 0 -24
-12 -40 -27 -23 -22 -30 -24 -43 -13 -10 8 -15 9 -15 1 0 -6 6 -11 13 -11 6 0
-1 -10 -16 -23 -16 -12 -41 -32 -55 -45 -17 -15 -28 -19 -30 -12 -3 7 -9 1
-16 -12 -6 -12 -22 -24 -34 -26 -12 -2 -22 -9 -22 -17 0 -7 -25 -28 -56 -47
-31 -18 -68 -40 -82 -48 -14 -9 -28 -24 -31 -34 -4 -9 -11 -18 -16 -18 -6 -1
-21 -11 -35 -24 -72 -64 -83 -73 -90 -69 -5 3 -22 -14 -39 -37 -17 -23 -31
-39 -31 -35 0 3 -17 -10 -38 -31 -21 -20 -50 -46 -65 -56 -15 -10 -27 -23 -27
-29 0 -6 -29 -39 -65 -75 -36 -35 -65 -69 -65 -75 0 -6 -9 -20 -20 -32 -31
-30 -96 -118 -103 -137 -4 -10 -11 -18 -16 -18 -5 0 -12 -11 -15 -25 -4 -14
-11 -23 -17 -20 -5 4 -9 3 -8 -2 4 -18 -21 -63 -36 -63 -9 0 -18 -12 -21 -30
-4 -16 -10 -30 -14 -30 -5 0 -14 -16 -20 -36 -7 -19 -18 -38 -26 -41 -7 -3
-16 -20 -20 -39 -3 -19 -11 -34 -16 -34 -6 0 -8 -6 -5 -14 3 -8 3 -16 -1 -18
-10 -4 -52 -85 -52 -100 -1 -27 -67 -188 -75 -180 -4 4 -4 -3 -1 -15 4 -12 0
-38 -10 -60 -9 -21 -18 -54 -21 -73 -3 -19 -11 -50 -19 -69 -8 -19 -17 -55
-20 -80 -3 -25 -8 -48 -12 -51 -4 -3 -7 -16 -8 -30 -2 -47 -15 -165 -26 -238
-19 -129 2 -660 32 -772 5 -19 21 -89 35 -155 27 -121 45 -184 71 -242 8 -17
14 -40 14 -51 0 -12 4 -23 9 -27 5 -3 13 -20 17 -37 3 -18 13 -43 22 -56 8
-12 12 -25 8 -29 -3 -3 6 -26 20 -50 14 -24 23 -47 19 -52 -3 -5 -2 -11 3 -13
4 -1 30 -48 57 -103 28 -55 56 -106 63 -113 6 -7 12 -18 12 -23 0 -5 12 -28
26 -50 14 -23 23 -47 20 -55 -3 -9 -1 -12 4 -9 6 3 19 -10 31 -29 30 -52 42
-46 34 16 -20 156 -15 407 10 528 2 13 5 40 7 60 1 19 4 39 7 45 3 5 6 16 7
25 1 8 15 67 32 130 70 270 210 544 416 815 73 97 296 323 426 432 132 111
356 275 417 307 17 9 38 25 46 36 7 11 17 17 22 12 5 -4 5 -2 2 4 -8 13 29 69
45 69 7 1 12 7 10 14 -1 7 14 36 35 64 118 158 231 410 293 651 51 199 63 314
57 556 -5 210 -15 298 -51 438 -9 35 -14 68 -10 74 4 7 3 8 -4 4 -7 -4 -12 -1
-12 6 0 20 -57 194 -75 229 -9 16 -13 29 -10 29 2 0 -31 71 -75 157 -44 87
-80 162 -80 168 0 5 -11 24 -24 40 l-24 30 -12 -30z"/>
<path d="M1692 6825 c-61 -19 -96 -43 -130 -94 -36 -54 -50 -135 -33 -197 14
-51 74 -122 120 -142 32 -14 166 -34 155 -23 -8 8 58 31 70 24 6 -3 8 -3 5 1
-3 3 10 23 29 44 71 75 90 168 53 255 -11 25 -16 48 -13 52 4 4 2 5 -3 3 -6
-1 -22 8 -35 20 -58 55 -147 78 -218 57z"/>
<path d="M7221 6275 c0 -5 4 -55 9 -110 17 -163 11 -477 -8 -510 -3 -5 -7 -16
-7 -25 -4 -38 -29 -142 -52 -215 -13 -44 -26 -87 -28 -95 -16 -72 -105 -261
-118 -253 -6 3 -7 1 -3 -6 8 -12 -59 -131 -81 -144 -7 -4 -13 -13 -13 -19 0
-19 -52 -88 -61 -82 -5 3 -6 -1 -3 -9 3 -9 -8 -26 -28 -42 -18 -15 -26 -23
-18 -19 13 7 13 5 1 -9 -7 -9 -18 -14 -24 -10 -5 3 -7 2 -4 -4 8 -13 -57 -76
-68 -66 -4 5 -5 3 -1 -4 6 -12 -26 -53 -41 -53 -5 0 -21 -16 -36 -35 -17 -21
-33 -33 -40 -29 -7 4 -9 4 -5 -1 14 -15 -255 -207 -294 -210 -9 -1 -21 -5 -25
-10 -5 -4 -2 -5 5 -1 6 4 12 5 12 3 0 -3 -48 -28 -107 -57 -126 -61 -369 -152
-469 -174 -38 -8 -100 -24 -139 -36 -120 -35 -314 -71 -620 -115 -236 -34
-378 -57 -590 -95 -304 -54 -645 -152 -930 -268 -165 -67 -465 -245 -570 -338
-224 -198 -369 -385 -480 -616 -81 -172 -127 -319 -149 -488 -8 -52 -14 -99
-16 -105 -7 -29 1 -51 20 -51 13 0 19 5 16 13 -3 7 -2 13 2 13 4 0 26 17 48
37 22 21 54 47 69 58 16 11 45 35 64 52 20 18 39 33 43 33 8 0 36 22 63 48 8
6 18 12 23 12 4 0 19 11 32 25 13 14 29 25 37 25 7 0 13 5 13 11 0 6 7 8 17 5
10 -4 14 -4 10 0 -8 8 42 54 60 54 6 0 13 3 15 8 3 7 24 21 133 91 27 17 56
29 64 26 9 -3 12 -3 8 1 -3 4 7 14 23 23 16 9 69 40 117 68 48 29 94 53 101
53 6 0 12 5 12 11 0 5 5 7 10 4 6 -3 10 -2 10 4 0 5 17 15 38 22 20 7 47 18
59 26 12 8 28 11 34 7 8 -5 9 -3 4 6 -6 10 -4 12 8 7 10 -4 16 -2 14 6 -1 6 9
13 23 15 13 2 29 10 35 16 10 13 70 37 110 45 6 2 13 8 17 16 4 7 23 16 42 19
19 4 39 13 46 21 7 8 18 15 25 15 12 0 63 20 154 61 24 11 58 21 76 23 19 2
41 11 50 20 9 9 23 16 32 16 8 0 48 13 88 29 40 16 99 34 130 40 32 6 63 15
69 19 13 11 106 42 106 37 0 -3 25 4 54 16 30 11 77 24 103 29 50 9 157 34
208 50 17 5 74 18 129 30 54 11 106 24 115 29 9 5 36 11 61 15 69 10 183 36
202 47 10 5 26 9 35 9 10 0 54 10 98 21 44 11 99 25 123 29 23 5 52 14 63 21
12 6 30 9 40 6 12 -3 17 -1 13 5 -5 7 2 9 19 6 17 -3 24 -1 20 5 -4 6 0 8 10
4 9 -3 29 0 44 8 15 8 33 15 39 15 7 0 25 7 40 15 16 8 39 15 51 15 12 0 23 3
25 8 2 4 41 20 88 36 47 15 92 34 100 41 28 23 44 29 35 14 -6 -11 -5 -12 6
-1 7 6 21 12 30 12 9 0 19 6 22 14 3 7 18 17 33 20 15 4 40 16 55 27 15 10 34
19 43 19 9 0 26 11 38 25 12 14 28 25 35 25 7 0 22 9 33 20 12 12 25 18 30 15
6 -4 10 -1 10 5 0 6 8 14 17 17 9 4 24 13 32 20 9 8 45 36 81 63 108 83 240
202 256 232 5 9 26 36 47 60 240 274 406 638 462 1013 44 292 26 605 -53 942
-14 60 -16 85 -8 94 8 9 8 10 -1 5 -8 -4 -20 8 -32 31 -11 21 -20 34 -20 28z"/>
<path d="M7387 3793 c-4 -3 -7 -16 -7 -28 0 -12 -7 -30 -15 -41 -8 -10 -15
-30 -15 -44 0 -14 -7 -34 -15 -44 -8 -11 -15 -27 -15 -37 0 -9 -6 -22 -14 -28
-8 -7 -18 -27 -22 -44 -3 -18 -14 -43 -24 -57 -10 -14 -20 -35 -24 -46 -4 -12
-15 -29 -26 -39 -11 -10 -20 -26 -20 -36 0 -10 -13 -33 -28 -51 -15 -18 -36
-46 -45 -61 -10 -15 -23 -25 -29 -21 -7 4 -8 3 -4 -4 4 -7 2 -12 -3 -12 -6 0
-11 -7 -11 -15 0 -8 -9 -20 -20 -27 -11 -7 -20 -16 -20 -20 0 -12 -91 -103
-101 -101 -4 2 -6 -4 -3 -12 4 -8 2 -15 -3 -15 -5 0 -20 -10 -33 -22 -87 -81
-134 -115 -154 -111 -15 4 -17 2 -7 -5 9 -7 10 -12 2 -16 -6 -4 -14 -5 -18 -3
-10 6 -34 -19 -26 -27 4 -3 -1 -6 -10 -6 -8 0 -17 -4 -19 -9 -5 -15 -80 -61
-99 -61 -10 0 -23 -9 -29 -19 -5 -11 -20 -23 -32 -27 -12 -3 -44 -21 -72 -38
-69 -43 -174 -93 -213 -101 -18 -4 -33 -10 -33 -14 0 -8 -66 -39 -110 -52 -14
-3 -63 -21 -110 -38 -47 -17 -101 -36 -120 -41 -19 -5 -60 -16 -90 -25 -98
-29 -124 -36 -165 -45 -22 -5 -60 -15 -85 -23 -25 -8 -74 -20 -110 -26 -64
-12 -105 -22 -165 -43 -16 -5 -59 -16 -93 -24 -35 -8 -116 -30 -180 -50 -65
-20 -137 -40 -162 -46 -25 -5 -57 -16 -73 -24 -15 -8 -32 -12 -37 -9 -6 3 -10
2 -10 -2 0 -5 -19 -14 -42 -20 -186 -50 -624 -218 -776 -297 -28 -14 -36 -15
-50 -4 -15 12 -16 11 -3 -4 7 -10 9 -18 4 -18 -5 0 -67 -32 -139 -71 -71 -39
-134 -72 -141 -72 -7 0 -10 -4 -7 -9 3 -4 1 -8 -4 -8 -14 0 -282 -182 -358
-242 -37 -29 -71 -52 -76 -50 -5 1 -7 -2 -3 -7 7 -12 -29 -33 -40 -23 -5 4 -5
2 -1 -5 7 -13 -91 -100 -108 -95 -6 2 -8 0 -4 -4 11 -10 -12 -35 -25 -27 -5 3
-7 1 -3 -5 3 -6 -1 -17 -9 -25 -8 -9 -15 -20 -15 -26 0 -6 50 -35 110 -64 61
-30 107 -57 103 -62 -5 -4 -3 -5 3 -2 6 3 53 -10 105 -29 52 -20 153 -53 224
-75 164 -48 503 -117 544 -110 7 1 11 -1 8 -6 -3 -4 113 -8 256 -8 556 2 1014
99 1467 312 83 39 292 153 300 164 3 3 21 14 40 24 19 10 37 21 40 24 16 22
143 100 152 95 6 -4 8 -2 5 3 -4 6 14 28 40 49 26 21 43 32 38 24 -5 -8 9 3
31 25 109 110 230 219 239 216 6 -1 7 0 4 4 -6 6 28 49 102 127 20 20 35 39
33 41 -2 2 17 25 42 51 25 27 40 45 32 40 -7 -4 3 12 23 37 20 24 54 72 76
106 22 34 44 59 48 55 5 -4 5 -1 1 6 -5 7 -2 21 6 30 8 9 27 40 43 67 16 28
33 53 39 57 6 4 8 8 4 8 -4 0 19 52 52 115 32 63 56 115 54 115 -3 0 1 10 7
23 49 90 199 519 199 568 0 12 6 44 14 72 7 29 19 88 25 132 6 44 13 98 16
120 20 142 27 295 17 348 -2 9 -16 9 -25 0z"/>
<path d="M6338 3456 c-57 -15 -90 -36 -121 -78 -51 -69 -61 -161 -27 -237 24
-51 49 -76 105 -102 123 -57 276 20 305 152 11 50 9 75 -11 148 -7 25 -64 83
-99 101 -49 24 -98 29 -152 16z"/>
<path d="M5823 3073 c-24 -8 -43 -19 -43 -24 0 -6 -4 -7 -10 -4 -5 3 -10 -1
-10 -10 0 -10 -5 -13 -12 -9 -7 5 -8 3 -3 -6 4 -7 2 -16 -5 -20 -9 -5 -14 -36
-16 -89 -1 -45 2 -79 6 -76 5 3 11 -8 15 -25 4 -16 12 -28 18 -27 7 1 11 -3
10 -9 -1 -6 3 -11 10 -12 7 0 32 -8 56 -17 47 -17 85 -14 136 13 17 9 34 15
38 14 5 -1 6 2 2 8 -3 5 -1 10 6 10 7 0 9 3 6 7 -4 3 1 15 10 25 12 14 17 38
17 91 1 67 -1 76 -31 113 -18 22 -38 41 -45 42 -7 0 -31 5 -53 11 -49 13 -50
13 -102 -6z"/>
<path d="M4241 2488 c-228 -8 -299 -13 -308 -22 -3 -3 -20 -6 -37 -6 -31 0
-134 -17 -281 -46 -88 -17 -93 -18 -244 -64 -57 -18 -109 -33 -115 -35 -6 -1
-24 -7 -39 -14 -16 -6 -33 -8 -39 -5 -6 4 -8 2 -5 -3 4 -6 -14 -18 -41 -28
-59 -22 -278 -131 -313 -156 -14 -10 -32 -19 -40 -21 -8 -2 -18 -8 -24 -14 -5
-6 -48 -37 -95 -69 -47 -33 -115 -86 -152 -118 -43 -38 -71 -56 -80 -51 -7 4
-10 4 -6 -1 4 -4 -42 -59 -102 -122 -61 -63 -110 -118 -110 -122 0 -22 381
-351 407 -351 5 0 20 11 33 25 12 13 27 22 31 19 5 -3 9 1 9 9 0 21 220 228
234 220 6 -3 8 -3 4 1 -3 4 19 28 50 53 88 71 87 70 78 53 -4 -8 1 -5 11 6 23
27 214 157 231 157 6 0 12 3 12 7 0 3 18 16 40 29 32 18 44 20 62 11 20 -10
21 -9 6 3 -15 12 -15 14 2 25 59 36 171 91 182 88 7 -1 9 -1 4 2 -5 3 41 29
103 58 62 30 118 51 124 47 7 -3 9 -2 4 2 -8 9 8 17 156 75 53 21 94 34 90 27
-3 -6 9 -2 28 10 31 19 322 119 365 126 11 1 24 6 29 9 13 8 216 59 345 88 52
11 106 23 118 25 16 4 21 2 17 -5 -4 -7 7 -5 23 4 17 9 47 16 67 16 66 0 35
17 -52 29 -86 12 -334 28 -502 33 -46 2 -172 0 -280 -4z"/>
<path d="M3428 552 c-33 -2 -46 -7 -42 -16 3 -9 -6 -12 -30 -12 -20 1 -32 5
-29 11 3 5 0 4 -8 -2 -19 -19 -34 -16 -18 4 13 15 12 15 -8 5 -12 -7 -24 -8
-27 -4 -3 5 -27 7 -53 6 -26 -2 -128 -3 -225 -4 -130 0 -178 -4 -181 -13 -4
-9 -6 -9 -6 1 -1 6 -6 12 -12 12 -5 0 -7 -4 -4 -10 3 -5 1 -10 -4 -10 -6 0
-11 4 -11 8 0 13 -100 14 -116 1 -8 -6 -14 -7 -14 -2 0 7 -16 7 -42 3 -23 -5
-47 -6 -53 -4 -7 3 -18 -3 -26 -12 -12 -15 -12 -16 0 -10 9 6 12 5 9 -4 -2 -8
-14 -14 -26 -15 -26 -2 -27 1 -7 22 9 8 13 18 10 21 -8 8 -35 -31 -30 -45 6
-19 -20 -46 -41 -40 -17 4 -17 5 3 6 17 1 21 6 18 23 -3 12 3 31 13 42 15 18
14 17 -12 -2 -35 -27 -47 -28 -40 -4 4 10 2 13 -3 7 -10 -13 -47 -19 -39 -7 3
5 -1 9 -9 9 -8 0 -13 -5 -12 -10 1 -5 -4 -12 -11 -14 -8 -3 -10 2 -6 14 5 15
4 16 -5 3 -10 -13 -12 -13 -22 0 -9 12 -10 12 -5 -4 5 -13 2 -17 -8 -13 -10 4
-13 1 -9 -9 4 -11 9 -12 19 -3 11 9 17 9 28 0 10 -9 15 -8 19 2 6 17 40 16 61
-2 12 -10 16 -10 16 -2 0 7 5 9 11 5 8 -4 8 -9 0 -17 -9 -9 -17 -8 -31 1 -11
6 -23 12 -27 12 -5 0 -1 -5 7 -10 12 -8 11 -10 -5 -10 -12 0 -27 -6 -34 -12
-9 -8 -11 -8 -8 -2 4 7 0 15 -9 18 -22 8 -26 8 -19 -3 3 -5 0 -13 -6 -17 -8
-4 -9 -3 -5 4 4 7 4 12 -1 13 -50 5 -66 3 -74 -11 -6 -11 -8 -6 -4 15 4 25 1
31 -15 32 -14 1 -18 -2 -13 -10 13 -21 11 -36 -4 -30 -8 3 -12 12 -9 19 3 7 1
16 -4 19 -6 4 -10 1 -10 -6 0 -7 -9 -2 -20 11 -11 13 -20 18 -20 12 0 -7 -5
-12 -11 -12 -5 0 -8 4 -5 9 5 8 -22 8 -31 1 -2 -2 -8 -3 -15 -4 -6 0 -13 -6
-15 -12 -2 -7 7 -11 27 -9 18 1 30 -2 30 -9 0 -7 -9 -12 -20 -13 -11 -1 -20 4
-20 10 0 7 -4 6 -10 -3 -8 -13 -10 -13 -10 -1 0 12 -3 12 -12 3 -17 -17 -28
-15 -28 4 0 11 5 14 16 10 10 -4 14 -1 12 6 -3 7 -12 12 -21 12 -9 -1 -40 -2
-69 -3 -28 0 -48 -4 -44 -8 3 -4 28 -6 54 -6 26 0 35 -1 21 -4 -15 -2 -32 -14
-38 -26 -11 -21 -11 -21 -5 3 6 23 6 24 -11 10 -17 -13 -18 -13 -11 0 4 8 0 6
-8 -4 -16 -19 -16 -19 -16 -1 0 15 -3 16 -12 7 -17 -17 -97 -16 -104 1 -3 8
-12 14 -20 14 -8 0 -13 -5 -11 -12 3 -6 -4 -12 -14 -12 -10 -1 -19 3 -19 8 0
7 -27 9 -72 5 -107 -7 -168 -18 -168 -28 0 -5 -5 -6 -12 -2 -6 4 -8 3 -5 -3 4
-6 23 -9 43 -6 24 3 34 1 30 -6 -4 -6 2 -8 16 -5 47 11 74 10 94 -3 19 -12 22
-12 28 2 4 13 9 13 25 3 11 -7 17 -17 13 -23 -3 -5 1 -4 9 2 9 7 31 12 51 11
19 -1 40 2 46 6 7 4 10 0 8 -11 -3 -14 3 -18 25 -18 16 -1 29 3 29 8 0 5 -7 7
-15 4 -8 -4 -17 -2 -20 3 -7 11 28 14 39 3 3 -4 13 -8 22 -9 11 -2 13 3 8 19
-6 20 -6 20 12 3 17 -17 18 -17 31 0 7 9 16 14 20 11 3 -4 3 -7 -1 -7 -4 0 -1
-7 8 -15 20 -20 26 -19 21 5 -2 12 0 18 6 15 5 -4 7 -11 3 -16 -3 -6 3 -13 15
-16 12 -3 21 -10 21 -15 0 -5 4 -7 9 -3 5 3 12 1 16 -5 4 -6 11 -8 16 -5 5 4
9 2 9 -2 0 -5 23 -9 50 -9 28 0 50 3 50 8 0 4 5 8 11 8 5 0 7 -5 3 -12 -5 -7
-3 -8 5 -3 10 6 8 12 -7 27 -19 19 -49 17 -37 -2 3 -5 1 -12 -5 -15 -6 -4 -9
-1 -8 6 2 6 -3 14 -11 17 -8 2 -11 0 -7 -6 3 -6 2 -13 -3 -16 -5 -4 -12 -2
-16 3 -3 5 -15 8 -26 6 -18 -4 -19 -2 -7 12 11 14 10 15 -10 9 -12 -4 -22 -4
-22 1 0 5 10 9 22 10 11 1 25 8 30 15 6 8 7 5 3 -11 -6 -18 -4 -22 6 -15 23
14 99 13 99 -2 0 -21 13 -23 40 -8 l25 14 -27 -4 c-16 -3 -28 -1 -28 3 0 4 25
7 55 8 53 0 58 -3 54 -34 -1 -5 -5 -7 -10 -6 -5 2 -9 -1 -9 -6 0 -5 10 -11 21
-14 19 -5 21 -3 16 29 l-6 34 50 0 c27 0 51 -1 52 -2 2 -2 11 3 20 10 13 11
19 11 36 0 17 -10 25 -10 41 0 29 18 36 15 11 -5 -15 -13 -18 -22 -11 -33 8
-13 12 -12 27 4 14 16 14 17 1 7 -11 -8 -18 -9 -23 -1 -3 5 -5 10 -3 10 2 0
18 4 36 9 20 6 30 6 27 0 -4 -5 -1 -9 5 -9 6 0 8 -5 4 -11 -4 -8 -8 -8 -13 0
-4 6 -11 3 -19 -9 -13 -22 -14 -22 40 -24 25 -1 34 2 28 9 -5 6 -5 17 0 25 6
8 10 12 11 8 9 -45 21 -68 37 -67 11 0 12 2 4 6 -6 2 -9 10 -6 15 5 7 2 8 -6
3 -10 -6 -12 -4 -7 7 6 18 -25 52 -38 41 -4 -5 -2 2 4 15 8 14 8 22 1 22 -10
0 -12 -7 -14 -44 -1 -11 -7 -21 -15 -24 -9 -3 -11 0 -6 9 5 7 10 23 11 35 2
17 -2 20 -23 16 -17 -3 -24 -1 -19 6 3 6 27 10 52 10 26 0 50 6 54 12 6 9 9 9
12 -1 6 -18 58 -18 58 1 0 13 1 13 10 0 7 -12 13 -13 28 -3 15 9 19 8 19 -5 0
-22 -16 -42 -34 -42 -12 0 -11 4 4 18 10 9 13 13 6 9 -6 -5 -16 -6 -21 -3 -6
3 -9 -10 -7 -29 2 -34 -7 -46 -20 -25 -3 6 -2 10 3 10 5 0 7 11 4 25 -3 20 -7
23 -18 14 -8 -6 -14 -8 -14 -3 0 4 -6 -1 -14 -11 -17 -24 -11 -43 17 -47 24
-3 34 -24 15 -31 -7 -2 -6 -3 3 -2 9 1 23 -1 30 -6 8 -4 18 -1 27 9 7 9 11 11
7 5 -3 -7 -2 -13 4 -13 5 0 12 6 14 13 3 6 6 3 6 -7 1 -20 1 -20 16 0 9 12 13
13 10 4 -5 -13 3 -16 42 -15 26 0 54 4 62 9 10 7 12 6 6 -3 -5 -10 2 -11 30
-7 22 4 34 2 30 -3 -3 -6 4 -8 16 -6 28 6 29 7 31 38 2 21 5 24 16 15 7 -7 11
-20 8 -31 -3 -11 -1 -16 3 -11 5 5 12 20 16 34 4 17 3 21 -3 12 -7 -11 -10
-11 -15 3 -5 11 -3 14 5 9 8 -5 9 -1 5 12 -7 18 -6 18 8 -1 9 -11 14 -28 11
-38 -2 -9 0 -15 5 -11 5 3 9 1 9 -4 0 -5 7 -9 15 -9 8 0 15 4 15 9 0 4 -6 8
-13 8 -8 0 -14 7 -14 14 0 11 5 12 17 6 9 -5 22 -5 29 -1 15 10 53 2 46 -9 -2
-4 -16 -6 -30 -5 -17 2 -25 -2 -25 -11 0 -9 4 -12 10 -9 19 12 50 14 56 4 4
-6 11 -5 21 2 9 8 17 9 21 3 4 -5 21 -11 37 -12 l30 -2 -25 13 c-14 8 -24 19
-22 25 3 16 -6 15 -25 -3 -18 -19 -33 -11 -32 18 1 17 2 18 6 5 5 -21 14 -23
30 -7 8 8 17 7 32 -3 12 -8 19 -17 16 -20 -3 -3 7 -5 22 -4 17 0 27 -4 26 -12
-2 -7 4 -12 12 -12 8 0 14 6 13 13 -2 6 3 11 10 9 8 -1 11 2 7 8 -3 6 -11 7
-17 4 -7 -4 -8 -2 -4 4 4 7 3 12 -3 12 -5 0 -11 -6 -13 -12 -3 -7 -7 -3 -10 9
-5 17 -2 20 11 16 9 -3 22 -11 29 -16 7 -5 15 -7 19 -4 3 3 20 -1 37 -10 30
-15 31 -15 14 3 -12 14 -14 23 -7 34 9 13 10 12 5 -2 -3 -11 2 -22 14 -28 12
-6 20 -7 20 -1 0 5 -4 11 -9 13 -5 2 2 12 17 22 14 11 23 15 19 10 -3 -5 8
-17 24 -27 30 -17 30 -17 25 6 -6 22 -6 22 6 -1 8 -15 18 -22 30 -19 15 4 17
1 12 -19 -4 -14 -2 -24 5 -24 6 0 8 7 4 17 -5 12 -3 14 7 8 9 -5 11 -4 6 3 -4
7 -2 12 4 12 6 0 8 5 4 12 -4 7 -3 8 5 4 6 -4 9 -11 6 -16 -3 -5 0 -12 7 -16
8 -5 6 -10 -8 -15 -14 -5 -11 -7 14 -6 17 0 33 3 33 6 1 3 2 26 4 49 1 30 -1
39 -7 28 -5 -9 -7 -20 -3 -25 3 -5 1 -12 -4 -15 -5 -3 -11 5 -13 19 -3 13 -1
22 3 19 5 -3 9 -1 9 5 0 6 -16 10 -35 9 -27 -1 -32 -4 -24 -14 10 -13 -6 -32
-18 -20 -4 3 -1 6 7 6 9 0 10 3 1 14 -16 19 -195 20 -187 0 3 -7 1 -16 -5 -19
-5 -4 -9 -3 -8 2 5 27 -4 33 -51 33 -43 0 -50 3 -50 20 0 11 5 20 11 20 5 0 8
-4 4 -9 -11 -19 11 -18 30 2 l20 20 -20 -6 c-17 -6 -18 -5 -4 5 8 7 21 22 28
33 l13 20 -7 -20 c-11 -34 -11 -37 8 -40 15 -3 16 -1 6 11 -10 12 -9 13 4 9 8
-4 18 -2 22 4 3 6 12 11 18 11 7 0 4 -5 -5 -11 -10 -5 -18 -15 -18 -21 0 -6 6
-5 16 3 10 8 18 9 22 3 8 -12 205 -11 242 1 23 7 24 7 10 -11 -13 -17 -13 -18
0 -9 8 6 39 10 67 10 43 -1 52 2 50 14 -1 13 10 17 52 18 69 4 81 13 14 12
-52 -2 -77 6 -68 20 6 11 -38 8 -46 -2 -10 -14 -89 -17 -89 -3 0 7 -17 12 -45
12 -25 0 -45 -4 -45 -8 0 -5 10 -7 23 -4 12 2 30 0 40 -3 10 -4 -15 -8 -57 -8
-65 -2 -76 1 -76 15 -1 15 -2 15 -11 -1 -8 -13 -21 -17 -49 -15 -22 1 -37 4
-34 7 3 3 21 4 40 2 18 -1 34 1 34 6 0 8 -41 10 -122 5z m-168 -24 c0 -4 -5
-8 -11 -8 -5 0 -7 -5 -4 -10 3 -6 0 -13 -9 -16 -15 -6 -11 -34 6 -34 5 0 7 4
3 9 -3 5 -1 12 4 16 6 3 8 -3 6 -14 -3 -17 0 -18 25 -11 22 6 30 5 34 -7 5
-12 0 -14 -24 -11 -21 3 -30 0 -30 -9 0 -12 -3 -11 -16 1 -12 12 -20 13 -35 6
-15 -8 -19 -7 -19 5 0 8 7 15 15 15 8 0 15 5 15 10 0 15 -6 12 -40 -19 -36
-32 -60 -34 -71 -5 -4 10 -8 13 -8 7 -2 -22 -31 -14 -31 8 0 14 5 19 15 16 8
-4 17 -2 20 3 3 5 13 6 22 3 11 -5 14 -3 8 6 -5 9 1 8 16 -2 22 -14 27 -14 56
-1 21 11 30 22 28 33 -2 10 3 18 11 18 8 0 14 -4 14 -9z m-357 -5 c-13 -2 -35
-2 -50 0 -16 2 -5 4 22 4 28 0 40 -2 28 -4z m47 3 c0 -2 -7 -9 -15 -16 -13
-11 -14 -10 -9 4 5 14 24 23 24 12z m53 -3 c-7 -2 -21 -2 -30 0 -10 3 -4 5 12
5 17 0 24 -2 18 -5z m164 -12 c0 -11 -5 -17 -9 -15 -5 3 -6 9 -3 14 3 5 -27
11 -67 13 l-73 3 77 2 c70 2 77 0 75 -17z m51 7 c-3 -7 -13 -14 -24 -15 -17
-2 -17 -1 1 4 l20 6 -20 8 c-19 7 -18 8 3 8 15 1 22 -4 20 -11z m-628 -8 c-7
-4 -16 -13 -19 -19 -5 -8 -13 -6 -24 7 -16 17 -15 18 20 19 21 1 31 -2 23 -7z
m697 -20 c-1 -11 -5 -20 -10 -20 -5 0 -5 10 -2 21 5 16 4 19 -5 14 -9 -5 -11
-4 -6 4 10 16 25 4 23 -19z m280 13 c0 -7 -4 -13 -9 -13 -4 0 -8 5 -8 11 0 8
-4 8 -14 0 -10 -8 -16 -8 -24 2 -9 10 -4 13 22 13 20 0 33 -5 33 -13z m20 -5
c-3 -8 -6 -5 -6 6 -1 11 2 17 5 13 3 -3 4 -12 1 -19z m68 12 c-3 -5 -1 -10 6
-10 7 0 10 -3 6 -6 -9 -9 -28 6 -22 17 4 5 8 9 11 9 3 0 2 -4 -1 -10z m35 0
c0 -5 -2 -10 -4 -10 -3 0 -8 5 -11 10 -3 6 -1 10 4 10 6 0 11 -4 11 -10z m50
3 c0 -1 -8 -7 -18 -12 -13 -7 -19 -6 -19 2 0 7 9 13 19 13 10 0 18 -1 18 -3z
m107 -6 c0 -15 -34 -20 -42 -6 -3 5 1 6 9 3 9 -3 16 -1 16 5 0 6 4 11 8 11 5
0 9 -6 9 -13z m-517 -1 c0 -2 -8 -10 -17 -17 -16 -13 -17 -12 -4 4 13 16 21
21 21 13z m-1185 -26 c-3 -5 3 -11 12 -13 10 -3 6 -4 -8 -4 -24 1 -27 6 -20
35 1 2 6 0 11 -3 6 -4 8 -10 5 -15z m458 13 c-7 -2 -13 -11 -13 -19 0 -8 -9
-14 -19 -14 -11 0 -23 -4 -26 -10 -3 -5 -16 -10 -28 -9 -20 1 -20 2 3 9 27 9
19 13 -19 10 -15 -1 -21 2 -16 10 4 6 13 9 20 6 7 -2 17 0 23 6 8 8 15 8 25
-1 11 -9 17 -8 27 4 7 8 18 15 24 14 7 0 6 -2 -1 -6z m265 -5 c-2 -7 5 -12 14
-12 10 1 16 -1 13 -5 -2 -4 4 -21 14 -38 14 -22 15 -30 5 -30 -7 0 -11 4 -8 9
3 4 0 8 -5 8 -6 0 -11 7 -11 16 0 8 -5 12 -10 9 -6 -4 -8 -10 -5 -15 3 -4 -9
-7 -25 -6 -19 1 -29 -2 -26 -9 2 -6 -5 -12 -15 -12 -18 -2 -18 -1 1 20 11 11
20 29 20 40 0 16 2 17 15 3 17 -16 20 -30 6 -21 -5 3 -12 1 -15 -4 -4 -5 2 -8
11 -7 21 3 28 23 14 40 -6 7 -8 16 -4 19 10 10 13 8 11 -5z m177 3 c3 -5 2
-12 -3 -15 -5 -3 -9 1 -9 9 0 17 3 19 12 6z m-120 -22 c-8 -12 28 -12 41 1 17
17 13 -23 -4 -42 -8 -10 -11 -18 -5 -18 5 0 10 -7 10 -16 0 -24 -52 47 -53 73
-1 12 3 20 8 17 4 -3 6 -10 3 -15z m-268 5 c-3 -3 -12 -4 -19 -1 -8 3 -5 6 6
6 11 1 17 -2 13 -5z m367 -18 c12 -4 23 -2 28 6 6 10 8 10 8 -1 0 -8 8 -24 18
-35 16 -20 16 -20 -2 -6 -18 13 -19 13 -14 -1 4 -9 1 -16 -7 -16 -7 0 -11 9
-9 21 3 12 2 15 -2 9 -3 -7 -17 -13 -31 -13 -23 0 -24 -2 -12 -17 11 -15 10
-15 -8 1 -27 22 -20 40 13 33 13 -2 21 0 18 4 -3 5 -12 9 -20 9 -8 0 -14 8
-14 18 0 10 3 13 8 6 4 -6 16 -14 26 -18z m313 12 c0 -7 3 -24 6 -38 5 -20 4
-19 -7 5 -8 17 -12 33 -9 38 6 10 10 9 10 -5z m-932 -28 c3 -6 -1 -7 -9 -4
-18 7 -21 14 -7 14 6 0 13 -4 16 -10z m335 -29 c0 -14 -18 -23 -31 -15 -8 4
-7 9 2 15 18 11 29 11 29 0z m433 -6 c-3 -9 -8 -14 -10 -11 -3 3 -2 9 2 15 9
16 15 13 8 -4z m117 11 c0 -3 -4 -8 -10 -11 -5 -3 -10 -1 -10 4 0 6 5 11 10
11 6 0 10 -2 10 -4z m40 -6 c0 -5 -2 -10 -4 -10 -3 0 -8 5 -11 10 -3 6 -1 10
4 10 6 0 11 -4 11 -10z m105 -8 c-3 -3 -11 0 -18 7 -9 10 -8 11 6 5 10 -3 15
-9 12 -12z m195 8 c0 -5 -2 -10 -4 -10 -3 0 -8 5 -11 10 -3 6 -1 10 4 10 6 0
11 -4 11 -10z m-1440 -19 c0 -6 -4 -12 -8 -15 -5 -3 -9 1 -9 9 0 8 4 15 9 15
4 0 8 -4 8 -9z m1174 -6 c3 -8 1 -15 -4 -15 -6 0 -10 7 -10 15 0 8 2 15 4 15
2 0 6 -7 10 -15z m-759 -5 c3 -5 1 -10 -4 -10 -6 0 -11 5 -11 10 0 6 2 10 4
10 3 0 8 -4 11 -10z m1125 -12 c0 -15 -18 -17 -30 -3 -9 11 -8 14 9 12 12 -1
21 -5 21 -9z m-800 -12 c0 -3 -4 -8 -10 -11 -5 -3 -10 -1 -10 4 0 6 5 11 10
11 6 0 10 -2 10 -4z m130 -10 c0 -11 -19 -15 -25 -6 -3 5 1 10 9 10 9 0 16 -2
16 -4z"/>
<path d="M3111 473 c0 -4 4 -17 9 -28 8 -19 9 -19 9 2 1 12 -3 25 -9 28 -5 3
-10 3 -9 -2z"/>
<path d="M3143 458 c0 -23 2 -25 13 -13 16 15 19 29 5 21 -5 -4 -11 0 -14 6
-2 7 -4 1 -4 -14z"/>
<path d="M2955 449 c-4 -6 -14 -8 -22 -4 -13 4 -14 3 -3 -10 7 -9 13 -14 14
-13 1 2 8 11 15 21 7 9 11 17 8 17 -3 0 -9 -5 -12 -11z"/>
<path d="M3580 548 c0 -4 11 -8 25 -8 14 0 25 4 25 8 0 4 -11 8 -25 8 -14 0
-25 -4 -25 -8z"/>
<path d="M3746 548 c3 -4 9 -8 15 -8 5 0 9 4 9 8 0 5 -7 9 -15 9 -8 0 -12 -4
-9 -9z"/>
<path d="M3894 552 c4 -3 14 -7 22 -8 9 -1 13 0 10 4 -4 3 -14 7 -22 8 -9 1
-13 0 -10 -4z"/>
<path d="M4065 550 c-3 -6 1 -7 9 -4 18 7 21 14 7 14 -6 0 -13 -4 -16 -10z"/>
<path d="M4105 549 c-3 -4 2 -6 10 -5 21 3 28 13 10 13 -9 0 -18 -4 -20 -8z"/>
<path d="M4150 549 c0 -5 5 -7 10 -4 6 3 10 8 10 11 0 2 -4 4 -10 4 -5 0 -10
-5 -10 -11z"/>
<path d="M4256 548 c3 -5 10 -6 15 -3 13 9 11 12 -6 12 -8 0 -12 -4 -9 -9z"/>
<path d="M4310 550 c0 -5 4 -10 9 -10 6 0 13 5 16 10 3 6 -1 10 -9 10 -9 0
-16 -4 -16 -10z"/>
<path d="M4350 550 c0 -4 7 -7 15 -6 23 3 26 12 5 13 -11 1 -20 -2 -20 -7z"/>
<path d="M4405 552 c8 -8 85 -10 85 -2 0 4 -20 8 -45 7 -25 0 -43 -3 -40 -5z"/>
<path d="M4516 544 c10 -8 13 -13 6 -9 -7 4 -18 2 -25 -3 -7 -5 -22 -8 -35 -7
-12 1 -28 -5 -35 -14 -11 -14 -10 -14 6 -2 10 8 17 9 17 3 0 -6 -4 -14 -10
-17 -5 -3 -10 -12 -10 -20 0 -16 38 -17 58 -2 7 6 15 7 19 3 4 -3 -2 -12 -12
-19 -17 -13 -47 -14 -90 -4 -18 4 -21 0 -20 -29 2 -33 -4 -41 -18 -28 -3 4 -2
14 3 24 6 12 5 17 -4 17 -9 0 -13 -10 -11 -24 1 -14 -2 -22 -9 -20 -6 2 -10
17 -9 33 1 17 -1 21 -4 10 -4 -15 -7 -16 -14 -5 -6 10 -9 10 -9 2 0 -7 -5 -13
-11 -13 -5 0 -7 5 -4 10 3 6 1 10 -5 10 -7 0 -10 -6 -7 -12 2 -7 12 -12 21
-12 17 2 22 -11 8 -20 -15 -9 -54 25 -48 43 5 14 4 13 -8 -1 -14 -19 -32 -25
-21 -8 3 6 1 10 -5 10 -7 0 -9 -7 -6 -16 4 -10 2 -14 -6 -11 -7 2 -12 10 -10
16 1 6 -2 11 -8 11 -5 0 -10 -4 -10 -9 0 -6 5 -13 10 -16 6 -3 10 -13 10 -21
0 -8 -4 -14 -10 -14 -5 0 -9 5 -7 12 2 14 -88 19 -114 7 -18 -9 -63 17 -54 31
3 5 1 11 -4 14 -5 4 -12 2 -16 -4 -4 -6 -11 -8 -16 -5 -5 4 -9 1 -9 -5 0 -7 6
-10 14 -7 8 3 20 0 26 -8 9 -10 4 -13 -27 -11 -20 2 -39 9 -41 16 -3 7 0 10 7
6 6 -4 11 -3 11 3 0 5 -12 9 -27 7 -16 -1 -33 2 -40 6 -13 11 -38 -26 -28 -42
3 -6 2 -10 -4 -10 -18 0 -23 20 -10 38 11 13 8 12 -9 -2 -20 -18 -22 -18 -22
-1 0 14 -3 13 -20 -6 -10 -13 -19 -19 -20 -14 0 6 6 17 13 25 10 12 9 12 -6 0
-11 -8 -15 -19 -11 -29 11 -26 6 -52 -13 -66 -25 -18 -30 -9 -9 14 13 15 15
24 8 37 -7 12 -7 27 0 43 7 20 7 23 -3 14 -14 -14 -23 -77 -9 -68 6 3 10 1 10
-4 0 -6 -4 -11 -9 -11 -5 0 -12 -9 -16 -19 -4 -13 -12 -18 -22 -14 -11 4 -14
2 -9 -5 4 -7 17 -10 29 -8 12 2 29 0 39 -5 13 -7 15 -5 11 10 -3 10 0 22 6 25
7 5 9 0 5 -11 -3 -11 -2 -14 3 -8 4 6 17 11 28 10 11 0 26 9 34 19 13 17 15
18 26 2 12 -15 13 -15 19 0 5 13 9 14 21 4 8 -7 12 -17 9 -22 -4 -6 1 -6 13 1
13 6 23 7 30 0 6 -6 16 -4 29 6 10 8 14 15 7 15 -6 0 -15 -5 -18 -10 -4 -6
-11 -8 -16 -4 -6 3 -2 12 10 21 15 10 26 11 38 4 10 -6 14 -11 9 -11 -5 0 -3
-7 4 -15 11 -13 10 -14 -4 -9 -9 3 -16 2 -16 -3 0 -5 9 -9 20 -10 11 -1 20 3
20 9 0 7 4 7 13 0 14 -12 35 -11 55 1 7 5 12 3 12 -5 0 -10 3 -9 9 2 6 8 7 18
5 22 -3 4 0 8 6 8 7 0 9 -8 5 -19 -5 -16 0 -18 44 -17 47 2 87 16 45 16 -16 0
-17 2 -4 10 9 6 10 10 3 10 -6 0 -15 -5 -18 -10 -4 -6 -11 -8 -16 -4 -16 10
27 35 48 28 16 -6 16 -5 -2 9 -23 19 -13 22 16 7 23 -13 25 -30 4 -30 -18 0
-19 -9 -4 -30 9 -13 10 -12 5 3 -3 9 -1 17 4 17 6 0 10 -8 10 -17 0 -9 3 -13
6 -10 4 3 15 2 26 -4 18 -9 18 -8 8 10 -9 17 -8 21 5 21 10 0 13 -5 9 -12 -5
-9 -2 -8 9 1 10 8 20 11 23 8 3 -3 17 -2 30 3 15 6 24 6 24 0 0 -6 5 -10 10
-10 6 0 10 6 10 14 0 8 6 17 13 19 10 4 10 6 0 6 -7 1 -13 6 -13 12 0 5 5 7
10 4 6 -3 10 -2 10 2 0 5 -9 14 -21 21 -12 7 -18 16 -15 19 3 3 13 0 23 -8 14
-12 15 -12 9 0 -6 9 -5 12 4 9 20 -6 21 -76 1 -81 -14 -4 -14 -5 2 -6 9 0 17
-6 17 -12 0 -5 -4 -8 -8 -5 -4 2 -14 1 -22 -4 -7 -4 -24 -4 -37 1 -14 5 -23 5
-23 -1 0 -6 9 -10 20 -10 11 0 20 -6 20 -12 0 -10 2 -10 8 -1 11 18 70 24 75
7 3 -8 4 -7 3 3 -1 10 -8 17 -14 16 -16 -4 -16 14 0 23 6 4 14 2 16 -4 2 -7 8
-12 14 -12 6 0 6 6 -2 15 -8 10 -9 15 -2 15 6 0 16 -8 21 -17 10 -17 10 -17
11 0 0 10 4 16 10 12 5 -3 6 -13 3 -23 -3 -9 -3 -14 1 -10 15 13 14 86 0 105
-13 17 -14 17 -7 -1 4 -14 2 -17 -8 -14 -8 3 -13 11 -11 17 1 7 -3 9 -9 6 -8
-5 -8 -10 0 -18 16 -16 13 -23 -9 -23 -15 0 -18 5 -14 18 3 10 0 18 -6 18 -6
0 -8 -4 -5 -10 10 -16 -11 -12 -25 5 -11 14 -7 19 13 16 4 0 6 2 6 7 -4 25 2
34 14 23 8 -6 17 -8 20 -4 4 3 7 1 7 -5 0 -7 5 -12 10 -12 6 0 9 3 9 8 -1 4
-1 14 0 22 1 13 2 13 11 0 5 -8 10 -11 10 -6 0 6 7 1 15 -10 10 -13 13 -14 10
-3 -4 9 0 16 8 16 11 0 15 -22 8 -45 -1 -1 -11 2 -23 8 -19 9 -21 9 -8 -2 11
-9 15 -29 14 -65 -1 -29 2 -53 7 -53 5 0 8 5 7 11 -2 6 3 14 11 17 8 2 11 0 8
-5 -3 -5 -1 -10 6 -11 32 -3 51 -10 55 -20 2 -7 18 -11 35 -11 30 2 30 2 5 6
-14 2 -32 11 -39 19 -11 13 -9 14 13 9 18 -5 27 -2 31 9 4 9 1 15 -5 13 -6 -1
-12 3 -15 10 -3 8 5 10 24 7 15 -3 29 -9 31 -13 10 -27 28 -40 42 -30 13 9 13
10 -2 6 -18 -6 -33 19 -17 28 5 4 7 11 4 16 -4 5 -1 9 6 9 6 0 9 -8 6 -20 -3
-11 -2 -18 2 -16 4 3 15 -3 23 -14 11 -12 24 -17 38 -13 14 4 26 -1 35 -13 13
-18 14 -18 8 4 -3 12 -10 22 -15 22 -5 0 -6 5 -2 12 5 7 3 8 -6 3 -10 -6 -12
-4 -7 8 3 9 2 19 -3 22 -6 4 -10 12 -10 18 1 7 9 2 19 -10 11 -13 27 -23 36
-23 9 0 14 -4 11 -9 -3 -4 5 -8 17 -7 14 1 22 7 21 19 -1 9 3 14 9 10 6 -4 8
0 5 9 -4 8 -1 15 7 15 10 0 11 -6 2 -26 -6 -14 -15 -32 -20 -38 -6 -8 -6 -13
1 -13 6 0 12 6 15 13 2 6 8 9 12 5 4 -4 2 -16 -6 -25 -12 -17 -12 -17 6 -1 15
14 16 20 5 32 -10 13 -10 16 4 16 9 0 16 -5 16 -11 0 -5 5 -7 10 -4 14 9 12
-8 -2 -24 -9 -9 -9 -12 -1 -7 6 3 14 0 16 -6 4 -10 6 -9 6 1 1 11 4 11 19 0 9
-7 14 -9 10 -5 -4 5 -3 15 3 22 10 13 -6 32 -18 20 -4 -3 -1 -6 6 -6 7 0 9 -5
6 -10 -8 -13 -49 27 -58 56 -5 14 -3 13 9 -3 22 -31 79 -33 71 -3 -3 12 -1 18
5 14 5 -3 7 -17 3 -31 -4 -18 -2 -23 6 -17 8 5 10 2 7 -7 -4 -10 1 -15 13 -15
11 0 19 5 19 11 0 5 5 3 10 -5 9 -13 10 -13 10 0 0 13 2 13 9 0 6 -8 8 -17 6
-20 -2 -4 2 -7 10 -7 11 0 12 4 4 14 -12 13 -11 14 26 17 8 0 14 -3 13 -9 -2
-5 -7 -9 -13 -7 -5 2 -6 0 -2 -4 4 -4 15 -9 23 -10 9 -1 13 0 10 3 -7 7 23 43
36 43 5 0 7 -4 4 -9 -3 -5 2 -15 12 -22 16 -13 16 -13 2 5 -14 18 -13 19 1 14
14 -5 17 -1 15 23 -2 31 10 27 16 -5 3 -22 45 -30 66 -14 11 10 16 2 14 -22 0
-3 26 -6 59 -6 32 0 59 3 59 8 0 4 -9 5 -20 3 -11 -2 -20 0 -20 4 0 4 18 8 40
7 25 -1 39 -5 36 -12 -3 -7 5 -9 20 -6 13 2 22 8 19 11 -2 4 2 8 10 8 8 0 12
-4 9 -9 -3 -4 6 -8 20 -8 16 0 26 6 26 14 0 23 16 27 31 8 13 -15 12 -16 -3
-3 -16 12 -18 11 -18 -3 0 -13 11 -16 55 -16 30 0 55 5 55 10 0 6 5 10 11 10
5 0 7 -4 4 -10 -3 -5 1 -10 10 -10 9 0 14 4 11 8 -3 5 1 9 9 9 8 0 11 -5 8
-10 -4 -7 6 -7 28 -2 19 4 68 8 110 9 52 1 76 5 76 13 0 7 -4 10 -8 8 -4 -3
-6 3 -5 12 2 9 8 19 14 21 7 2 9 9 5 15 -5 8 -2 8 9 0 8 -7 18 -9 23 -5 4 4 0
-6 -10 -21 -14 -21 -15 -31 -6 -40 8 -8 11 -8 11 1 0 7 5 12 11 12 5 0 8 -4 5
-8 -2 -4 4 -8 14 -8 10 0 17 3 14 7 -2 4 19 5 46 3 47 -3 64 6 40 21 -6 4 -8
9 -6 13 2 4 -8 8 -22 9 l-27 1 28 -14 c32 -17 33 -20 8 -20 -11 0 -17 4 -15 8
6 10 -10 11 -19 1 -4 -3 -19 -8 -34 -9 -18 -2 -23 0 -14 5 8 5 9 11 3 15 -6 3
-12 0 -15 -6 -2 -7 -8 -9 -13 -5 -5 5 -1 13 9 19 18 9 18 11 0 31 l-18 22 25
-21 c20 -17 35 -21 73 -18 42 3 48 1 43 -14 -5 -13 -3 -13 9 2 8 11 15 14 15
8 0 -7 4 -12 10 -12 5 0 7 8 4 18 -4 10 -2 13 3 7 4 -6 15 -11 23 -10 16 0 58
-36 53 -47 -2 -4 7 -5 19 -2 22 5 107 12 158 14 16 0 20 3 13 8 -10 6 -88 8
-88 2 0 -1 -22 -3 -48 -4 -35 -1 -53 4 -64 16 -9 10 -11 18 -6 18 6 0 14 -7
17 -17 6 -14 9 -13 28 7 18 19 23 20 32 9 6 -8 17 -14 24 -13 6 1 16 2 22 3 5
0 7 8 4 16 -4 8 -1 15 5 15 6 0 10 -5 9 -11 -2 -6 3 -14 10 -16 8 -3 10 1 5
14 -7 17 -6 17 11 0 10 -9 22 -14 28 -11 7 4 8 2 4 -4 -4 -7 -1 -12 8 -12 9 0
16 -5 16 -12 0 -6 3 -9 6 -6 3 4 1 15 -4 25 -10 18 -6 19 81 16 61 -1 87 1 77
7 -15 10 -5 13 45 13 43 0 50 -3 35 -13 -8 -5 -17 -6 -20 -2 -6 10 -26 9 -36
0 -4 -5 2 -8 14 -8 12 0 22 -5 22 -11 0 -6 7 -4 15 5 9 8 22 13 30 10 10 -4
18 3 25 20 12 31 20 34 12 4 -4 -15 -2 -19 8 -13 7 4 16 2 21 -6 7 -11 9 -11
9 -1 0 7 5 10 10 7 6 -3 10 -1 10 5 0 7 -6 10 -13 7 -8 -3 -20 -1 -28 5 -14 9
64 3 105 -9 11 -3 16 -1 12 5 -3 6 -30 13 -59 17 -113 14 -107 15 -103 -11 3
-13 0 -24 -6 -24 -5 0 -8 6 -5 13 3 8 1 20 -4 28 -7 12 -9 12 -9 0 0 -11 -3
-11 -17 0 -20 17 -16 17 -36 0 -14 -11 -17 -11 -17 0 0 10 -2 11 -8 2 -9 -13
-192 -14 -192 -1 0 5 11 6 25 4 13 -3 28 0 31 6 4 6 2 8 -4 4 -6 -3 -13 -3
-16 2 -2 4 -36 9 -75 10 -39 2 -85 8 -103 13 -18 5 -34 9 -35 9 -2 0 -2 -9 0
-20 4 -26 17 -38 17 -15 0 14 6 16 31 11 17 -3 40 -6 50 -6 13 0 17 -5 13 -17
-5 -17 -5 -17 6 0 6 10 23 17 38 16 15 0 21 -3 14 -6 -6 -2 -10 -8 -7 -13 3
-5 -3 -7 -12 -5 -10 1 -23 -2 -30 -7 -7 -6 -15 -3 -21 9 -10 17 -11 17 -32 -2
-18 -16 -20 -16 -14 -2 6 17 -15 24 -30 10 -3 -4 -17 -8 -29 -9 -12 -2 -16 0
-9 3 10 4 9 9 -5 19 -13 10 -14 13 -3 11 8 -2 12 -2 7 0 -4 3 -5 8 -3 12 3 4
-35 7 -84 7 -49 0 -87 -2 -84 -5 7 -8 -49 -40 -59 -34 -6 3 -7 1 -3 -5 5 -8
13 -9 25 -2 10 5 22 6 26 2 5 -4 5 -2 2 4 -6 10 0 12 41 15 9 1 22 6 29 11 7
6 14 5 18 -2 4 -6 13 -9 21 -6 8 3 13 0 11 -7 -1 -7 8 -11 21 -11 12 1 22 -3
22 -7 0 -5 -20 -9 -45 -9 -27 0 -45 -5 -45 -11 0 -8 -4 -9 -13 0 -8 6 -18 7
-23 3 -4 -4 -3 0 4 10 8 10 9 19 3 22 -5 3 -11 1 -13 -6 -4 -12 -26 -18 -75
-19 -18 -1 -33 -6 -33 -12 0 -6 -3 -8 -6 -5 -9 10 26 57 39 53 16 -6 43 12 34
22 -5 4 -12 1 -17 -7 -6 -10 -12 -11 -22 -3 -17 14 -32 15 -169 18 -64 1 -122
6 -128 9 -6 4 -11 3 -11 -3 0 -5 5 -13 10 -16 6 -3 10 -12 10 -18 0 -7 -8 -1
-18 13 -12 18 -27 25 -54 26 -21 1 -36 -1 -33 -5 2 -4 -2 -8 -10 -8 -8 0 -12
4 -9 9 3 4 0 8 -5 8 -6 0 -11 -6 -11 -12 0 -10 -2 -10 -8 -1 -5 8 -59 13 -179
15 -136 2 -169 0 -161 -9 13 -16 -4 -17 -20 -1 -6 6 -50 13 -99 14 -48 2 -93
6 -100 8 -7 3 -15 1 -18 -4 -3 -5 0 -10 7 -13 7 -2 4 -2 -7 0 -29 6 -126 9
-131 4 -2 -3 -15 -6 -27 -8 -17 -2 -19 -1 -7 6 8 5 19 7 25 4 5 -4 6 -2 2 3
-5 5 -69 10 -143 10 -112 2 -134 -1 -130 -12 3 -8 1 -14 -4 -14 -6 0 -10 6
-10 13 0 10 -20 13 -75 14 -60 0 -75 -3 -78 -16 -4 -14 -5 -13 -6 2 0 9 -8 17
-16 17 -9 0 -12 -6 -9 -17 5 -17 5 -17 -6 0 -6 9 -18 17 -27 17 -14 0 -14 -2
3 -16z m198 -5 c3 -2 -9 -5 -26 -6 -18 0 -26 2 -18 7 13 8 36 8 44 -1z m71 1
c-3 -5 -12 -10 -18 -10 -7 0 -6 4 3 10 19 12 23 12 15 0z m-168 -6 c-3 -3 -12
-4 -19 -1 -8 3 -5 6 6 6 11 1 17 -2 13 -5z m430 -13 c-10 -12 -9 -14 6 -8 11
4 16 3 12 -3 -7 -11 -40 -8 -52 4 -5 4 -1 6 7 4 8 -1 14 2 13 8 -1 6 5 11 12
11 12 0 12 -3 2 -16z m188 12 c-11 -3 -26 -12 -33 -21 -10 -13 -14 -13 -25 -3
-10 10 -9 12 3 9 8 -2 14 2 13 7 -1 6 13 11 30 12 18 1 23 -1 12 -4z m99 -8
c2 -7 -3 -19 -12 -27 -15 -11 -15 -11 -5 3 15 18 8 30 -13 22 -8 -3 -14 -1
-14 4 0 14 38 13 44 -2z m31 -3 c-3 -3 -11 0 -18 7 -9 10 -8 11 6 5 10 -3 15
-9 12 -12z m-861 -7 c-4 -8 -1 -15 5 -15 6 0 11 5 11 12 0 6 2 9 5 6 3 -3 3
-13 -1 -22 -5 -12 -10 -14 -19 -6 -9 8 -14 7 -17 -1 -2 -7 -14 -13 -26 -14
-13 -1 -21 3 -19 9 2 6 11 10 20 10 10 -1 13 4 10 14 -4 10 -2 13 5 8 6 -3 13
-2 17 4 9 15 15 12 9 -5z m933 9 c-3 -3 -12 -4 -19 -1 -8 3 -5 6 6 6 11 1 17
-2 13 -5z m33 -4 c0 -5 -2 -10 -4 -10 -3 0 -8 5 -11 10 -3 6 -1 10 4 10 6 0
11 -4 11 -10z m100 6 c0 -3 -4 -8 -10 -11 -5 -3 -10 -1 -10 4 0 6 5 11 10 11
6 0 10 -2 10 -4z m37 -2 c-3 -3 -12 -4 -19 -1 -8 3 -5 6 6 6 11 1 17 -2 13 -5z
m60 0 c-3 -3 -12 -4 -19 -1 -8 3 -5 6 6 6 11 1 17 -2 13 -5z m40 0 c-3 -3 -12
-4 -19 -1 -8 3 -5 6 6 6 11 1 17 -2 13 -5z m-1063 -12 c3 -5 -1 -9 -9 -9 -8 0
-12 4 -9 9 3 4 7 8 9 8 2 0 6 -4 9 -8z m31 -2 c-3 -5 -1 -10 5 -10 6 0 9 -4 6
-8 -7 -11 34 -13 55 -2 13 8 19 6 22 -8 3 -12 5 -9 6 8 1 21 3 23 14 10 9 -12
31 -15 89 -15 69 1 76 0 65 -14 -7 -10 -2 -8 11 3 12 11 22 16 22 11 0 -4 7
-1 17 6 13 11 17 11 20 1 3 -6 8 -10 12 -7 9 5 6 -44 -3 -53 -3 -3 -6 6 -6 21
0 14 -4 28 -9 31 -4 3 -7 -8 -5 -24 3 -24 0 -28 -17 -25 -11 2 -17 0 -14 -6 4
-5 1 -9 -4 -9 -6 0 -11 6 -12 13 0 10 -2 10 -6 0 -2 -7 -9 -13 -14 -13 -6 0
-8 4 -5 8 3 5 -1 9 -8 9 -7 0 -12 -9 -11 -21 1 -12 3 -21 5 -21 1 0 3 -10 4
-22 4 -37 -23 -36 -46 3 -19 32 -47 42 -40 14 2 -8 -3 -10 -15 -5 -10 4 -26 8
-35 9 -10 0 -18 4 -18 8 0 14 20 19 39 9 14 -8 20 -7 25 4 3 8 0 17 -6 21 -7
4 -8 3 -4 -4 4 -7 1 -12 -8 -12 -9 0 -16 4 -16 8 0 4 -11 8 -25 8 -17 0 -21
-3 -15 -11 6 -8 5 -18 -4 -30 -12 -17 -12 -21 3 -33 15 -12 14 -13 -3 -8 -10
4 -25 1 -32 -5 -15 -12 -16 -10 -18 45 -1 23 -6 30 -26 32 -18 3 -21 2 -10 -5
8 -5 18 -7 23 -4 5 3 8 0 5 -7 -2 -8 -14 -14 -26 -15 -22 -2 -25 16 -7 45 5 8
10 29 11 45 2 35 2 35 10 35 3 0 2 -4 -1 -10z m56 0 c9 13 10 13 6 0 -2 -8
-10 -15 -17 -15 -7 0 -15 7 -17 15 -4 13 -3 13 6 0 10 -13 12 -13 22 0z m100
1 c5 9 9 10 9 2 0 -22 -22 -26 -38 -7 -16 17 -16 17 1 4 16 -12 20 -12 28 1z
m36 -6 c0 -8 -4 -12 -9 -9 -5 3 -6 10 -3 15 9 13 12 11 12 -6z m42 3 c7 11 9
11 14 -1 4 -10 -1 -14 -16 -13 -11 1 -22 8 -24 16 -4 13 -3 13 6 0 9 -12 13
-13 20 -2z m41 1 c0 -8 4 -8 13 0 10 8 14 7 14 -3 0 -16 -22 -15 -39 2 -9 9
-9 12 0 12 7 0 12 -5 12 -11z m175 1 c-3 -5 -12 -10 -18 -10 -7 0 -6 4 3 10
19 12 23 12 15 0z m45 -25 c0 -5 -5 -3 -10 5 -5 8 -10 20 -10 25 0 6 5 3 10
-5 5 -8 10 -19 10 -25z m635 25 c-3 -5 0 -10 7 -10 9 0 9 -3 -2 -10 -11 -7 -5
-10 24 -10 32 0 37 -3 31 -17 -5 -15 -3 -15 13 2 11 11 17 25 14 30 -3 6 2 4
11 -3 9 -8 35 -13 59 -12 62 3 66 1 38 -16 -16 -10 -18 -13 -5 -8 11 4 29 7
41 7 12 1 21 7 20 15 -1 8 5 16 12 18 7 1 8 0 2 -3 -22 -10 2 -21 29 -13 38
11 45 3 21 -23 -17 -17 -21 -18 -37 -6 -9 8 -14 9 -10 3 5 -8 -15 -11 -67 -10
-70 1 -73 0 -64 -18 12 -22 -9 -41 -28 -26 -6 6 -14 7 -17 3 -4 -3 -8 5 -8 18
-1 16 -3 18 -6 7 -3 -11 -10 -15 -20 -11 -11 4 -14 2 -9 -5 5 -8 1 -10 -10 -5
-13 5 -15 3 -9 -7 6 -10 4 -11 -6 -4 -23 14 -39 13 -39 -2 0 -21 4 -29 13 -26
4 1 7 -2 7 -8 0 -5 -4 -10 -8 -10 -15 0 -31 22 -25 36 3 8 -2 13 -14 12 -10 0
-27 3 -38 8 -18 7 -19 6 -5 -11 8 -10 10 -16 3 -12 -6 4 -13 4 -16 0 -2 -5 -2
-3 -1 4 3 13 -22 26 -29 15 -2 -4 -2 -1 -1 6 2 6 -1 12 -6 12 -6 0 -9 6 -7 13
1 6 -6 11 -15 11 -12 -1 -18 5 -18 20 0 11 4 17 8 11 4 -5 16 -15 27 -21 11
-6 20 -16 20 -23 0 -22 19 -13 36 18 10 19 19 27 22 19 2 -7 -3 -22 -12 -33
-11 -14 -8 -13 11 4 15 13 24 29 20 35 -10 17 -11 37 -1 30 5 -3 7 -9 4 -14
-3 -5 -1 -11 4 -15 6 -3 7 -13 4 -23 -5 -14 -3 -15 7 -5 7 7 14 25 16 40 2 33
2 33 10 33 3 0 2 -4 -1 -10z m45 -12 c0 -6 -6 -5 -15 2 -8 7 -15 14 -15 16 0
2 7 1 15 -2 8 -4 15 -11 15 -16z m71 5 c13 -16 12 -17 -3 -4 -17 13 -22 21
-14 21 2 0 10 -8 17 -17z m43 5 c-3 -4 -9 -8 -15 -8 -5 0 -9 4 -9 8 0 5 7 9
15 9 8 0 12 -4 9 -9z m17 -11 c-10 -9 -11 -8 -5 6 3 10 9 15 12 12 3 -3 0 -11
-7 -18z m49 13 c0 -5 -5 -10 -11 -10 -5 0 -7 5 -4 10 3 6 8 10 11 10 2 0 4 -4
4 -10z m119 -2 c8 3 11 0 7 -6 -9 -15 -44 -11 -51 5 -3 10 0 11 13 5 9 -5 23
-7 31 -4z m-764 -8 c3 -6 -1 -7 -9 -4 -18 7 -21 14 -7 14 6 0 13 -4 16 -10z
m989 -5 c-3 -6 -11 -12 -18 -12 -8 0 -12 6 -10 12 3 6 11 12 18 12 8 0 12 -6
10 -12z m-1278 -17 c4 -13 7 -30 6 -38 -3 -13 -2 -13 8 0 9 12 11 12 8 1 -2
-8 -11 -15 -19 -16 -11 -2 -14 5 -11 26 2 16 0 29 -6 29 -6 0 -8 -10 -4 -22 3
-14 2 -19 -6 -14 -7 4 -12 1 -12 -6 0 -10 -2 -10 -9 1 -7 11 -9 11 -14 0 -3
-8 -4 -4 -4 8 1 18 5 22 22 17 18 -6 19 -5 5 11 -9 11 -10 16 -2 11 6 -4 12
-2 12 3 0 20 19 11 26 -11z m64 -21 c0 -5 8 1 18 13 18 22 19 22 37 4 10 -10
27 -18 38 -19 11 0 22 -7 24 -15 3 -9 1 -11 -4 -5 -12 16 -66 12 -80 -5 -9
-12 -10 -9 -7 15 2 17 1 22 -2 12 -4 -12 -12 -17 -24 -14 -11 3 -20 1 -22 -4
-2 -5 -9 0 -16 12 -12 19 -12 20 10 14 19 -6 21 -5 11 6 -7 7 -13 18 -13 24 1
12 30 -25 30 -38z m182 21 c-7 -7 -12 -8 -12 -2 0 14 12 26 19 19 2 -3 -1 -11
-7 -17z m-48 -10 c-3 -4 2 -8 11 -8 10 0 13 5 9 13 -5 8 -2 7 10 -2 13 -11 20
-11 28 -3 15 15 42 16 33 2 -9 -14 8 -12 24 3 11 10 13 10 7 0 -4 -7 -4 -13 1
-14 4 0 18 -2 31 -3 15 -2 21 2 18 10 -4 11 -2 11 14 1 30 -18 24 -25 -20 -23
-23 1 -40 -2 -41 -8 0 -6 -4 -2 -9 9 -5 11 -9 15 -9 8 -1 -6 -14 -10 -31 -9
-16 1 -30 -3 -30 -8 0 -6 -4 -5 -9 2 -10 16 -21 18 -30 4 -3 -6 -11 0 -17 12
-8 17 -8 23 2 23 7 0 11 -4 8 -9z m231 4 c-3 -3 3 -11 13 -18 16 -12 15 -13
-6 -14 -13 0 -20 -4 -17 -10 3 -5 2 -10 -3 -10 -5 0 -9 13 -8 28 1 16 7 29 14
29 6 0 10 -3 7 -5z m44 -4 c7 11 9 11 14 -2 4 -9 12 -16 18 -16 7 0 8 5 3 13
-5 7 -1 4 10 -8 10 -11 24 -19 31 -17 8 1 12 -5 11 -15 -2 -12 -12 -18 -28
-19 -20 -1 -24 3 -21 18 3 10 0 18 -6 18 -7 0 -9 -4 -6 -10 3 -5 -2 -10 -12
-10 -11 0 -25 -6 -32 -12 -11 -10 -13 -10 -7 0 4 7 2 12 -5 12 -7 0 -5 6 6 13
12 10 14 16 7 21 -7 4 -12 13 -12 19 0 7 4 6 10 -3 8 -12 12 -13 19 -2z m125
0 c-3 -4 2 -8 11 -8 9 0 13 -4 10 -10 -9 -15 -23 -12 -34 8 -7 14 -6 19 4 19
8 0 12 -4 9 -9z m-1244 -50 c0 -4 -4 -8 -10 -8 -5 0 -10 5 -10 11 0 8 -4 8
-14 -1 -8 -6 -12 -18 -9 -26 3 -8 1 -14 -5 -14 -5 0 -8 10 -7 23 1 12 3 28 4
34 1 10 7 10 26 1 14 -6 25 -15 25 -20z m2300 19 c0 -4 -11 -6 -25 -4 -36 4
-39 13 -5 12 17 0 30 -3 30 -8z m-2846 -33 c-2 -19 1 -23 8 -16 8 8 15 6 26
-4 8 -8 21 -13 28 -10 16 6 19 -10 3 -19 -5 -4 -19 1 -29 10 -13 12 -20 13
-25 5 -6 -9 -10 -9 -16 1 -6 11 -11 10 -26 -3 -10 -8 -24 -13 -30 -11 -7 3
-13 0 -13 -7 0 -18 -26 11 -27 32 -2 26 15 32 43 13 32 -21 39 -16 43 31 0 8
5 13 10 10 4 -3 7 -17 5 -32z m2591 18 c-3 -3 -11 0 -18 7 -9 10 -8 11 6 5 10
-3 15 -9 12 -12z m-2559 -1 c-7 -11 21 -24 52 -24 22 0 29 -11 13 -22 -5 -3
-12 -1 -16 4 -3 6 -12 8 -19 5 -7 -3 -19 2 -26 10 -7 9 -16 13 -21 10 -10 -6
-12 9 -2 19 10 10 25 8 19 -2z m1068 -43 c8 -6 8 -8 -1 -8 -7 0 -16 6 -20 13
-4 6 -14 12 -22 12 -8 0 -16 6 -19 13 -2 7 2 10 11 6 8 -3 19 1 23 8 7 9 10 6
12 -12 2 -14 9 -28 16 -32z m361 42 c-3 -5 -12 -10 -18 -10 -7 0 -6 4 3 10 19
12 23 12 15 0z m-1115 -29 c-6 -12 -14 -19 -19 -17 -4 3 -13 -4 -20 -16 -7
-11 -8 -17 -2 -14 5 4 12 3 15 -2 2 -4 -6 -8 -19 -8 -13 0 -22 3 -19 7 8 14
-8 38 -22 32 -9 -3 -13 -12 -9 -21 3 -9 3 -13 0 -10 -4 4 -18 2 -32 -3 -14 -5
-30 -6 -36 -2 -7 4 -16 8 -22 8 -5 1 -9 6 -7 13 1 7 -5 15 -13 18 -8 4 -15 10
-15 15 0 6 8 6 19 0 10 -6 21 -7 25 -4 9 9 116 11 110 2 -2 -4 0 -11 6 -14 6
-4 22 5 36 20 28 30 42 28 24 -4z m304 1 c5 11 7 11 12 0 4 -8 11 -5 24 10
l19 23 -2 -22 c-1 -23 -22 -37 -38 -27 -6 3 -20 -1 -32 -9 -21 -14 -22 -13
-23 22 l-2 35 18 -22 c13 -16 20 -18 24 -10z m659 11 c-5 -12 -3 -14 7 -8 8 5
11 4 7 -2 -4 -6 3 -13 14 -16 15 -4 19 -2 15 9 -4 10 -2 12 6 8 7 -5 9 -2 6 7
-4 10 1 15 12 15 10 0 16 -6 13 -13 -3 -7 -9 -13 -14 -13 -5 0 -9 -4 -9 -8 0
-5 7 -9 15 -9 8 0 15 7 15 14 0 11 3 11 14 1 16 -15 1 -42 -18 -31 -6 4 -35 8
-65 8 -32 0 -56 5 -58 12 -3 7 4 9 18 6 15 -4 20 -3 15 5 -4 7 -4 17 -1 22 10
16 15 12 8 -7z m-748 -17 c-2 -19 -8 -21 -67 -21 -59 0 -65 -2 -62 -18 2 -14
0 -16 -10 -8 -10 9 -13 32 -7 60 1 2 7 -1 14 -6 6 -6 19 -11 27 -11 8 -1 27
-3 42 -6 16 -2 31 1 35 6 3 6 1 8 -4 5 -6 -4 -13 -1 -16 6 -3 9 4 14 22 14 22
0 27 -5 26 -21z m1003 -1 c-3 -3 -9 2 -12 12 -6 14 -5 15 5 6 7 -7 10 -15 7
-18z m552 6 c-5 -11 -15 -23 -21 -27 -6 -3 -3 5 6 20 20 30 30 35 15 7z m62 4
c3 3 8 -3 10 -13 7 -27 -16 -23 -29 5 -10 20 -9 22 1 14 7 -6 15 -8 18 -6z
m-714 -13 c5 -17 -13 -15 -27 2 -10 12 -9 14 5 12 10 -2 20 -8 22 -14z m622 8
c0 -5 -9 -14 -20 -20 -14 -7 -20 -7 -20 0 0 5 7 10 15 10 8 0 15 5 15 10 0 6
2 10 5 10 3 0 5 -4 5 -10z m-1304 -21 c0 -13 -4 -15 -13 -8 -7 6 -17 8 -23 4
-5 -3 -10 -2 -10 4 0 9 16 18 35 18 6 0 11 -8 11 -18z m1374 2 c0 -4 -8 -7
-19 -7 -11 0 -17 6 -14 13 5 12 33 7 33 -6z m-610 0 c0 -5 -11 -8 -24 -7 -13
0 -22 4 -19 9 6 10 43 9 43 -2z"/>
<path d="M4869 453 c-13 -16 -12 -17 4 -4 9 7 17 15 17 17 0 8 -8 3 -21 -13z"/>
<path d="M4714 425 c17 -13 23 -30 6 -20 -5 3 -10 1 -10 -4 0 -13 17 -14 24
-2 9 15 -3 38 -21 38 -14 0 -14 -2 1 -12z"/>
<path d="M4880 429 c0 -6 -7 -9 -15 -5 -13 4 -14 2 -5 -14 15 -27 28 -25 28 5
0 14 -2 25 -4 25 -2 0 -4 -5 -4 -11z"/>
<path d="M5896 472 c-3 -4 4 -9 15 -9 23 -2 25 3 4 10 -8 4 -16 3 -19 -1z"/>
<path d="M5828 463 c7 -3 16 -2 19 1 4 3 -2 6 -13 5 -11 0 -14 -3 -6 -6z"/>
<path d="M5948 463 c7 -3 16 -2 19 1 4 3 -2 6 -13 5 -11 0 -14 -3 -6 -6z"/>
<path d="M5793 434 c-3 -8 -12 -13 -20 -10 -8 3 -11 2 -8 -3 10 -17 41 -8 41
11 0 22 -5 23 -13 2z"/>
<path d="M5905 440 c-8 -13 14 -42 26 -34 5 3 7 10 3 15 -3 5 -10 6 -16 3 -7
-5 -9 -1 -5 9 7 19 2 23 -8 7z"/>
<path d="M5821 421 c0 -10 2 -12 6 -3 2 6 8 10 12 8 4 -3 13 -1 20 3 9 6 4 9
-13 9 -18 0 -26 -6 -25 -17z"/>
<path d="M5561 437 c-13 -21 -12 -21 5 -5 10 10 16 20 13 22 -3 3 -11 -5 -18
-17z"/>
<path d="M5620 420 c0 -6 7 -10 15 -10 8 0 15 2 15 4 0 2 -7 6 -15 10 -8 3
-15 1 -15 -4z"/>
<path d="M3829 373 c-13 -16 -12 -17 4 -4 16 13 21 21 13 21 -2 0 -10 -8 -17
-17z"/>
<path d="M4093 377 c3 -10 2 -17 -2 -17 -5 0 -11 5 -13 12 -3 7 -7 4 -12 -7
-4 -11 -4 -16 0 -13 4 4 14 3 23 -2 13 -6 17 -4 18 11 1 10 -3 22 -9 25 -7 5
-9 1 -5 -9z"/>
<path d="M4124 370 c0 -13 4 -16 10 -10 7 7 7 13 0 20 -6 6 -10 3 -10 -10z"/>
<path d="M3347 539 c7 -7 15 -10 18 -7 3 3 -2 9 -12 12 -14 6 -15 5 -6 -5z"/>
<path d="M3994 510 c2 -14 -2 -31 -8 -39 -9 -12 -8 -12 11 0 13 8 18 16 12 20
-6 3 -10 9 -9 13 1 4 -1 12 -4 19 -2 6 -3 1 -2 -13z"/>
<path d="M4024 515 c7 -9 13 -9 17 -2 4 5 14 7 24 4 9 -4 13 -3 10 2 -3 6 -18
9 -34 9 -23 -1 -26 -4 -17 -13z"/>
<path d="M4095 520 c3 -5 8 -10 11 -10 2 0 4 5 4 10 0 6 -5 10 -11 10 -5 0 -7
-4 -4 -10z"/>
<path d="M4169 517 c4 -4 18 -3 32 2 23 9 22 9 -8 8 -18 -1 -28 -6 -24 -10z"/>
<path d="M4230 513 c0 -15 2 -15 9 -4 5 8 16 11 26 7 15 -5 15 -9 4 -24 -13
-15 -12 -16 4 -3 13 10 15 17 6 27 -17 20 -49 18 -49 -3z"/>
<path d="M4360 521 c0 -6 4 -13 10 -16 6 -3 7 1 4 9 -7 18 -14 21 -14 7z"/>
<path d="M4393 511 c0 -11 5 -17 9 -15 5 3 6 9 3 14 -3 4 1 11 7 13 8 4 7 6
-4 6 -11 1 -16 -6 -15 -18z"/>
<path d="M2154 511 c4 -5 13 -8 21 -7 25 4 25 12 -1 14 -14 1 -23 -2 -20 -7z"/>
<path d="M2210 509 c0 -4 11 -6 23 -5 14 2 24 -2 24 -10 0 -7 -4 -11 -8 -8 -4
2 -10 1 -13 -4 -2 -4 4 -8 14 -9 11 -1 20 7 22 22 4 20 1 23 -29 22 -18 -1
-33 -4 -33 -8z"/>
<path d="M4147 496 c-4 -10 1 -12 14 -9 23 6 24 9 5 16 -8 3 -17 0 -19 -7z"/>
<path d="M1815 489 c-40 -6 -40 -6 33 -14 12 -1 22 1 22 6 0 13 -13 15 -55 8z"/>
<path d="M3905 490 c-3 -6 1 -7 9 -4 18 7 21 14 7 14 -6 0 -13 -4 -16 -10z"/>
<path d="M3940 494 c0 -1 6 -7 14 -13 10 -9 15 -8 19 2 3 8 -3 13 -14 13 -11
0 -19 -1 -19 -2z"/>
<path d="M4107 489 c7 -7 15 -10 18 -7 3 3 -2 9 -12 12 -14 6 -15 5 -6 -5z"/>
<path d="M4194 486 c1 -8 5 -18 8 -22 4 -3 5 1 4 10 -1 8 -5 18 -8 22 -4 3 -5
-1 -4 -10z"/>
<path d="M6280 480 c-6 -11 -7 -20 -2 -20 6 0 12 9 15 20 3 11 3 20 1 20 -2 0
-8 -9 -14 -20z"/>
<path d="M6683 483 c9 -2 25 -2 35 0 9 3 1 5 -18 5 -19 0 -27 -2 -17 -5z"/>
<path d="M6740 486 c0 -2 7 -6 15 -10 8 -3 15 -1 15 4 0 6 -7 10 -15 10 -8 0
-15 -2 -15 -4z"/>
<path d="M3887 469 c7 -7 15 -10 18 -7 3 3 -2 9 -12 12 -14 6 -15 5 -6 -5z"/>
<path d="M4073 460 c-1 -11 2 -20 5 -20 4 0 8 9 9 20 1 11 -2 20 -5 20 -4 0
-8 -9 -9 -20z"/>
<path d="M4160 476 c0 -2 8 -10 18 -17 15 -13 16 -12 3 4 -13 16 -21 21 -21
13z"/>
<path d="M4286 468 c3 -5 10 -6 15 -3 13 9 11 12 -6 12 -8 0 -12 -4 -9 -9z"/>
<path d="M2694 452 c5 -8 0 -12 -13 -12 -12 0 -21 -4 -21 -10 0 -5 9 -10 19
-10 22 0 35 26 19 36 -7 4 -8 3 -4 -4z"/>
<path d="M4157 434 c6 -15 23 -19 23 -5 0 5 -7 11 -14 14 -10 4 -13 1 -9 -9z"/>
<path d="M4040 431 c0 -17 19 -22 37 -11 15 9 14 10 -6 4 -16 -4 -21 -3 -17 5
4 6 2 11 -3 11 -6 0 -11 -4 -11 -9z"/>
<path d="M4100 430 c0 -5 5 -10 10 -10 6 0 10 5 10 10 0 6 -4 10 -10 10 -5 0
-10 -4 -10 -10z"/>
<path d="M4130 430 c0 -5 5 -10 11 -10 5 0 7 5 4 10 -3 6 -8 10 -11 10 -2 0
-4 -4 -4 -10z"/>
<path d="M6980 428 c0 -4 7 -8 15 -8 8 0 15 4 15 8 0 5 -7 9 -15 9 -8 0 -15
-4 -15 -9z"/>
<path d="M1670 420 c0 -5 5 -10 11 -10 5 0 7 5 4 10 -3 6 -8 10 -11 10 -2 0
-4 -4 -4 -10z"/>
<path d="M2465 420 c-3 -5 -1 -10 4 -10 6 0 11 -4 11 -8 0 -4 -9 -8 -20 -8
-14 0 -19 5 -15 16 3 10 0 8 -10 -4 -10 -14 -11 -24 -4 -38 9 -16 29 -17 29
-2 0 3 -4 2 -10 -1 -11 -7 -14 8 -4 18 8 8 35 -3 29 -13 -3 -4 2 -11 10 -14
12 -4 13 -2 6 12 -6 11 -6 24 0 33 5 7 9 12 10 9 0 -3 2 -14 4 -24 2 -10 11
-26 21 -35 9 -9 14 -10 10 -3 -6 10 -1 11 21 7 26 -5 26 -5 5 5 -13 5 -29 7
-35 3 -6 -4 -8 0 -4 9 3 9 -4 25 -17 37 -25 24 -32 25 -41 11z"/>
<path d="M1947 413 c-3 -5 1 -14 9 -21 12 -10 14 -10 14 2 0 17 -16 30 -23 19z"/>
<path d="M6445 410 c-3 -5 -1 -10 4 -10 6 0 11 5 11 10 0 6 -2 10 -4 10 -3 0
-8 -4 -11 -10z"/>
<path d="M6620 414 c0 -2 9 -8 20 -14 15 -8 18 -8 14 3 -4 11 -34 21 -34 11z"/>
<path d="M1912 394 c-11 -12 -8 -14 15 -14 15 0 24 4 18 8 -5 4 -12 10 -15 14
-3 3 -11 0 -18 -8z"/>
<path d="M2115 401 c-3 -5 -2 -12 3 -15 5 -3 9 1 9 9 0 17 -3 19 -12 6z"/>
<path d="M2269 383 c-5 -13 -11 -23 -15 -23 -3 0 -4 7 -1 14 4 10 1 13 -9 9
-7 -3 -14 -9 -14 -13 0 -13 29 -20 36 -9 4 6 12 5 22 -3 10 -7 14 -8 10 -4
-10 11 11 38 23 30 5 -3 6 1 4 8 -9 22 -46 16 -56 -9z m26 8 c3 -5 2 -12 -3
-15 -5 -3 -9 1 -9 9 0 17 3 19 12 6z"/>
<path d="M2360 395 c6 -8 9 -19 5 -24 -4 -7 1 -8 11 -4 10 4 15 2 11 -3 -3 -5
3 -10 13 -10 10 0 16 6 13 13 -3 7 -9 10 -14 8 -4 -3 -14 3 -21 15 -7 11 -17
20 -22 20 -4 0 -3 -7 4 -15z"/>
<path d="M2386 398 c3 -4 9 -8 15 -8 5 0 9 4 9 8 0 5 -7 9 -15 9 -8 0 -12 -4
-9 -9z"/>
<path d="M3527 404 c-3 -3 -3 -12 -1 -19 3 -7 -4 -20 -16 -28 -25 -17 -7 -29
25 -16 11 4 14 8 8 8 -7 1 -13 6 -13 12 0 5 4 8 9 4 5 -3 13 0 17 6 5 8 3 9
-6 4 -9 -5 -11 -4 -6 4 11 17 28 2 21 -20 -4 -11 -2 -19 5 -19 6 0 8 5 5 10
-3 6 -1 10 4 10 6 0 11 -4 11 -10 0 -5 8 -10 18 -10 21 0 25 27 6 34 -9 3 -11
-1 -8 -12 4 -13 1 -12 -13 4 -22 25 -58 46 -66 38z"/>
<path d="M6121 401 c-8 -5 -9 -11 -3 -15 5 -3 12 1 16 9 6 17 6 18 -13 6z"/>
<path d="M6187 399 c13 -12 31 -15 30 -4 -1 5 -10 10 -20 10 -10 1 -14 -2 -10
-6z"/>
<path d="M6335 400 c-3 -6 -13 -9 -20 -8 -13 3 -15 0 -15 -22 0 -5 20 -9 45
-8 48 2 53 12 18 35 -15 10 -23 11 -28 3z m45 -23 c0 -6 -69 -1 -76 6 -5 4 -1
5 8 2 9 -4 19 -2 23 4 4 8 12 8 26 1 10 -6 19 -12 19 -13z"/>
<path d="M6678 393 c6 -2 18 -2 25 0 6 3 1 5 -13 5 -14 0 -19 -2 -12 -5z"/>
<path d="M1995 380 c27 -12 35 -12 35 0 0 6 -12 10 -27 9 -25 0 -26 -1 -8 -9z"/>
<path d="M3460 350 c-13 -8 -12 -10 3 -10 9 0 17 5 17 10 0 12 -1 12 -20 0z"/>
<path d="M2598 343 c7 -3 16 -2 19 1 4 3 -2 6 -13 5 -11 0 -14 -3 -6 -6z"/>
<path d="M3879 350 c-12 -41 -1 -55 29 -36 7 4 19 3 27 -4 9 -7 15 -8 20 0 3
5 -2 11 -12 12 -10 0 -24 2 -31 2 -7 1 -17 8 -22 16 -5 8 -10 13 -11 10z"/>
<path d="M4786 342 c-3 -5 1 -9 9 -9 8 0 15 4 15 9 0 4 -4 8 -9 8 -6 0 -12 -4
-15 -8z"/>
<path d="M4960 342 c0 -5 7 -9 15 -9 8 0 15 4 15 9 0 4 -7 8 -15 8 -8 0 -15
-4 -15 -8z"/>
<path d="M4376 323 c-4 -9 -4 -18 -1 -21 3 -3 5 0 5 7 0 8 7 11 15 7 8 -3 15
-1 15 3 0 17 -28 20 -34 4z"/>
<path d="M4571 323 c-1 -17 16 -25 25 -12 4 7 3 9 -4 5 -5 -3 -13 0 -15 6 -4
9 -6 10 -6 1z"/>
<path d="M4670 320 c-9 -6 -10 -10 -3 -10 6 0 15 5 18 10 8 12 4 12 -15 0z"/>
<path d="M3986 311 c-4 -5 3 -7 14 -4 23 6 26 13 6 13 -8 0 -17 -4 -20 -9z"/>
<path d="M4610 309 c0 -5 5 -7 10 -4 6 3 10 8 10 11 0 2 -4 4 -10 4 -5 0 -10
-5 -10 -11z"/>
<path d="M4705 310 c3 -5 8 -10 11 -10 2 0 4 5 4 10 0 6 -5 10 -11 10 -5 0 -7
-4 -4 -10z"/>
<path d="M4188 303 c7 -3 16 -2 19 1 4 3 -2 6 -13 5 -11 0 -14 -3 -6 -6z"/>
</g>
</svg>
